<?xml version="1.0" encoding="utf-8"?>
<!-- Generator: Adobe Illustrator 22.0.1, SVG Export Plug-In . SVG Version: 6.00 Build 0)  -->
<svg version="1.1" id="Layer_1" xmlns="http://www.w3.org/2000/svg" xmlns:xlink="http://www.w3.org/1999/xlink" x="0px" y="0px"
	 viewBox="-41 183.7 512 474.4" enable-background="new -41 183.7 512 474.4" xml:space="preserve">
<g>
	<g>
		<path d="M256.6,280.4c-8.9-10-22.7-15.7-38-15.7c-27.3,0-51.6,18.6-54.3,41.5c-1.2,10.5,2,20.6,9.1,28.6
			c8.7,9.8,22.5,15.4,37.6,15.4c28,0,52-18.2,54.6-41.5C266.9,298.5,263.7,288.4,256.6,280.4z M243.9,306.2
			c-1.4,11.9-16.4,22-32.8,22c-8.8,0-16.7-3-21.2-8.1c-3-3.3-4.2-7.2-3.7-11.4c1.4-11.7,16.5-22,32.4-22c8.9,0,16.9,3.1,21.5,8.3
			C242.2,297.4,244.5,301.1,243.9,306.2z"/>
	</g>
</g>
<g>
	<g>
		<path d="M260.8,517.1c-2.8-1.8-9.2-6.2-4-36.1c0.1-0.7,0.7-3.1,1.5-6.8c1.8-8.6,5.3-24.5,9-42.2c0,0,0-0.1,0-0.1
			c3.8-19.2,0.8-36-8.7-48.6c-8.6-11.3-22.2-18.3-38.3-19.6c-23.8-1.9-48.7,12.3-56.3,26.3c-3.5,6.2-1.8,11.2-0.5,13.7
			c1.6,3,4,4.8,5.8,6c2.7,1.9,9,6.4,3,36.3c-0.6,2.7-9,45.4-10.1,51.4c0,0,0,0.1,0,0.1c-3.3,19.3,0,36.1,10,48.3
			c16.1,19.6,40.7,18.7,41.7,18.7c22.9,0,45.8-14.2,52.7-27.8c3.4-6.3,1.5-11.3,0.1-13.7C265.1,519.9,262.6,518.3,260.8,517.1z
			 M245.8,427.4c-3.7,17.7-7.1,33.5-9,42.1c-1.3,5.8-1.5,7-1.6,7.5c0,0,0,0.1,0,0.1c-5.6,32.1,0.1,46.2,8.1,54c-2.2,2-5.2,4.1-8.9,6
			c-7.3,3.8-15.4,5.7-22.2,5.3c-9.9-0.5-17.8-4.1-22.8-10.3c-5.8-7.3-7.7-17.9-5.5-30.8c1.2-6.5,9.6-49.2,9.9-50.9c0,0,0-0.1,0-0.1
			c6.4-31.9,1.1-46.1-6.7-54.2c2.2-1.9,5.3-3.9,9-5.7c7.4-3.6,15.5-5.3,22.3-4.8c9.9,0.8,17.7,4.6,22.5,10.9
			C246.7,403.9,248.3,414.6,245.8,427.4z"/>
	</g>
</g>
<g>
	<g>
		<path d="M418.6,559.9c33.8-40.6,52.4-90.7,52.4-142c0-62.8-26.8-121.7-75.4-166c-48.3-44-112.4-68.2-180.6-68.2
			S82.7,207.9,34.4,251.9C-14.2,296.2-41,355.1-41,417.9s26.8,121.7,75.4,166c48.3,44,112.4,68.2,180.6,68.2
			c42.6,0,84.6-9.7,121.9-28.2l89.2,33.4c1.4,0.5,2.9,0.8,4.3,0.8c3,0,6-1.1,8.3-3.3c3.4-3.1,4.8-7.9,3.5-12.4L418.6,559.9z
			 M340.4,599c-3.3-1.2-6.9-1-10,0.6c-34.9,18.3-74.9,27.9-115.4,27.9c-127.6,0-231.4-94-231.4-209.6S87.4,208.3,215,208.3
			s231.4,94,231.4,209.6c0,48.1-17.5,93.3-50.7,130.8c-2.8,3.1-3.8,7.5-2.6,11.5l18.7,65.5L340.4,599z"/>
	</g>
</g>
</svg>
