<?xml version="1.0" encoding="utf-8"?>
<!-- Generator: Adobe Illustrator 22.0.1, SVG Export Plug-In . SVG Version: 6.00 Build 0)  -->
<svg version="1.1" id="Слой_1" xmlns="http://www.w3.org/2000/svg" xmlns:xlink="http://www.w3.org/1999/xlink" x="0px" y="0px"
	 viewBox="0 0 372 349" enable-background="new 0 0 372 349" xml:space="preserve">
<g>
	<path fill="#FFFFFF" d="M310,318H62c-2.8,0-5-2.2-5-5s2.2-5,5-5h248c2.8,0,5,2.2,5,5S312.8,318,310,318"/>
	<path fill="#FFFFFF" d="M310,183.8c-1.3,0-2.6-0.5-3.5-1.5L186,61.8L65.6,182.3c-2,2-5.1,2-7.1,0c-2-2-2-5.1,0-7.1l124-124
		c2-2,5.1-2,7.1,0l124,124c2,2,2,5.1,0,7.1C312.6,183.3,311.3,183.8,310,183.8"/>
	<path fill="#FFFFFF" d="M370.6,182.4l-181-181c-1.9-1.9-5.2-1.9-7.1,0l-181,181c-2,2-2,5.1,0,7.1c2,2,5.1,2,7.1,0L57,141V344
		c0,2.8,2.2,5,5,5h248c2.8,0,5-2.2,5-5V141l48.5,48.5c1,1,2.3,1.5,3.5,1.5s2.6-0.5,3.5-1.5C372.5,187.5,372.5,184.4,370.6,182.4
		 M305,339H67V131L186,12l119,119V339z"/>
	<path fill="#FFFFFF" d="M203.1,279.9H169c-2.8,0-5-2.2-5-5v-47.2h-47.2c-2.8,0-5-2.2-5-5v-34.1c0-2.8,2.2-5,5-5H164v-47.2
		c0-2.8,2.2-5,5-5h34.1c2.8,0,5,2.2,5,5v47.2h47.3c2.8,0,5,2.2,5,5v34.1c0,2.8-2.2,5-5,5h-47.3v47.2
		C208.1,277.6,205.8,279.9,203.1,279.9 M174,269.9h24.1v-47.2c0-2.8,2.2-5,5-5h47.3v-24.1h-47.3c-2.8,0-5-2.2-5-5v-47.2H174v47.2
		c0,2.8-2.2,5-5,5h-47.2v24.1H169c2.8,0,5,2.2,5,5V269.9z"/>
</g>
</svg>
