<?xml version="1.0" encoding="utf-8"?>
<!-- Generator: Adobe Illustrator 22.0.1, SVG Export Plug-In . SVG Version: 6.00 Build 0)  -->
<svg version="1.1" id="Слой_1" xmlns="http://www.w3.org/2000/svg" xmlns:xlink="http://www.w3.org/1999/xlink" x="0px" y="0px"
	 viewBox="0 0 413 413" enable-background="new 0 0 413 413" xml:space="preserve">
<g>
	<path d="M242.6,294.2c-5.5,2.3-11.2,4-17,5.2c-2,0.4-3.5,1.9-3.9,3.9l-7.8,37.6c-2.3,11.4,0.4,23.2,7.5,32.4c4.8,6.5,5,15.4,0.3,22
		c-4.7,6.6-13.1,9.4-20.8,6.9c-7.7-2.5-12.9-9.6-12.9-17.7c0-3.9,1.2-7.7,3.5-10.9c7.1-9.3,9.9-21.2,7.7-32.7l-7.8-37.6
		c-0.4-2-1.9-3.5-3.9-3.9c-11.8-2.4-23-7.1-33.1-13.7c-1.7-1.1-3.8-1.1-5.5,0l-32.1,21.1c-9.7,6.4-16.1,16.7-17.6,28.2
		c-1.2,8-7.4,14.4-15.3,15.7c-8,1.3-15.9-2.6-19.6-9.8c-3.7-7.2-2.3-16,3.4-21.7c2.8-2.8,6.3-4.6,10.2-5.2c11.6-1.5,22-8,28.6-17.7
		l21.1-32.1c1.1-1.7,1.1-3.8,0-5.5c-6.6-10-11.3-21.2-13.7-33c-0.4-2-1.9-3.5-3.9-3.9l-37.6-7.8c-11.4-2.3-23.2,0.4-32.4,7.5
		c-7.6,5.8-18.4,4.8-24.9-2.2c-6.5-7-6.6-17.8-0.3-25c6.4-7.2,17.1-8.3,24.9-2.7c9.3,7.1,21.2,9.9,32.7,7.7l37.6-7.8
		c2-0.4,3.5-1.9,3.9-3.9c2.4-11.8,7.1-23,13.7-33.1c1.1-1.7,1.1-3.8,0-5.5l-21.1-32.1c-6.4-9.7-16.7-16.1-28.2-17.6
		c-8-1.2-14.4-7.4-15.7-15.3c-1.3-8,2.6-15.9,9.8-19.6c7.2-3.7,16-2.3,21.7,3.4c2.8,2.7,4.6,6.3,5.2,10.2c1.5,11.6,8,22,17.7,28.6
		l32.1,21.1c2.3,1.5,5.4,0.9,6.9-1.4c1.5-2.3,0.9-5.4-1.4-6.9L122.3,98c-7.3-5-12.2-12.9-13.3-21.8c-0.9-5.9-3.7-11.4-8-15.7
		c-8.8-8.8-22.3-11-33.4-5.3c-11.1,5.7-17.2,18-15.1,30.3c2.1,12.3,11.9,21.8,24.3,23.5c8.6,1.1,16.4,5.9,21.2,13.2l19.3,29.4
		c-5.8,9.4-10.1,19.7-12.7,30.5l-34.4,7.2c-8.7,1.6-17.7-0.6-24.8-6c-4.9-3.6-10.7-5.5-16.7-5.5c-12.5,0-23.5,8-27.3,19.9
		c-3.8,11.9,0.5,24.9,10.7,32.1c10.2,7.2,23.9,7,33.8-0.5c6.9-5.3,15.8-7.4,24.3-5.7l34.5,7.1c2.6,10.8,6.8,21.1,12.7,30.5L98,290.8
		c-5,7.3-12.9,12.2-21.8,13.3c-6,0.9-11.5,3.7-15.7,8c-8.8,8.8-11,22.3-5.3,33.4c5.7,11.1,18,17.2,30.3,15.1
		c12.3-2.1,21.8-11.9,23.5-24.3c1.1-8.6,5.9-16.4,13.2-21.2l29.4-19.3c9.4,5.8,19.7,10.1,30.5,12.7l7.2,34.4
		c1.6,8.7-0.6,17.7-6,24.8c-3.6,4.9-5.5,10.7-5.4,16.7c0,7.6,3,14.9,8.4,20.3c5.4,5.4,12.7,8.4,20.3,8.4c2.1,0,4.1-0.2,6.1-0.6
		c9.5-2.1,17.3-8.9,20.7-18c3.4-9.1,1.9-19.4-4-27.1c-5.3-6.9-7.4-15.8-5.7-24.3l7.1-34.5c5.3-1.3,10.5-2.9,15.5-5
		c2.5-1.1,3.8-4,2.7-6.5C248,294.3,245.1,293.1,242.6,294.2L242.6,294.2z"/>
	<path d="M169.6,119.3c5.8-2.4,11.7-4.3,17.9-5.6c2-0.4,3.5-1.9,3.9-3.9l7.8-37.6c2.3-11.4-0.4-23.2-7.5-32.4
		c-4.9-6.5-5-15.4-0.3-22c4.7-6.6,13.1-9.4,20.8-6.9c7.7,2.5,12.9,9.6,12.9,17.7c0,3.9-1.2,7.7-3.5,10.8c-7.1,9.3-9.9,21.2-7.7,32.7
		l7.8,37.6c0.4,2,1.9,3.5,3.9,3.9c11.8,2.4,23,7.1,33,13.7c1.7,1.1,3.8,1.1,5.5,0l32.1-21.1c9.7-6.4,16.1-16.7,17.6-28.2
		c1.2-8,7.4-14.4,15.3-15.7c8-1.3,15.9,2.6,19.6,9.8c3.7,7.2,2.3,16-3.4,21.7c-2.8,2.8-6.3,4.6-10.2,5.2c-11.6,1.5-22,8-28.6,17.7
		l-21.1,32.1c-1.1,1.7-1.1,3.8,0,5.5c6.6,10,11.3,21.2,13.7,33c0.4,2,1.9,3.5,3.9,3.9l37.6,7.8c2.6,0.5,5.3,0.8,7.9,0.8
		c8.8,0,17.4-3,24.4-8.3c2.2-1.7,2.6-4.8,0.9-7c-1.7-2.2-4.8-2.6-7-1c-6.9,5.3-15.8,7.4-24.3,5.7l-34.5-7.1
		c-2.6-10.8-6.8-21.1-12.7-30.5l19.3-29.4c5-7.3,13-12.1,21.8-13.3c5.9-0.9,11.4-3.7,15.7-8c8.8-8.8,11-22.3,5.3-33.4
		c-5.7-11.1-18-17.2-30.3-15.1c-12.3,2.1-21.8,11.9-23.5,24.3c-1.1,8.6-5.9,16.4-13.2,21.2l-29.4,19.3c-9.4-5.8-19.7-10.1-30.5-12.7
		l-7.2-34.4c-1.6-8.7,0.6-17.7,6-24.8c3.6-4.9,5.5-10.7,5.5-16.7c0-12.5-8-23.5-19.9-27.3c-11.9-3.8-24.9,0.5-32.1,10.7
		c-7.2,10.2-7,23.9,0.5,33.8c5.3,6.9,7.4,15.8,5.7,24.3l-7.1,34.5c-5.7,1.3-11.2,3.2-16.5,5.4c-2.5,1.1-3.6,4-2.5,6.5
		C164.2,119.1,167.1,120.3,169.6,119.3L169.6,119.3z"/>
	<path d="M412.4,200.4c-2.4-11-11.1-19.6-22.2-21.9c-2.7-0.5-5.3,1.2-5.9,3.9c-0.5,2.7,1.2,5.3,3.9,5.9c9.3,2,15.7,10.7,14.7,20.2
		c-1,9.5-9,16.7-18.6,16.7c-3.9,0-7.7-1.2-10.9-3.5c-9.3-7.1-21.2-9.9-32.7-7.7l-37.6,7.8c-2,0.4-3.5,1.9-3.9,3.9
		c-2.4,11.8-7.1,23-13.7,33c-1.1,1.7-1.1,3.8,0,5.5l21.1,32.1c6.4,9.7,16.7,16.1,28.2,17.6c8,1.2,14.4,7.4,15.7,15.3
		c1.3,8-2.6,15.9-9.8,19.6c-7.2,3.7-16,2.3-21.7-3.4c-2.8-2.8-4.6-6.3-5.2-10.2c-1.5-11.6-8-22-17.7-28.6l-32.1-21.1
		c-2.3-1.5-5.4-0.9-6.9,1.4c-1.5,2.3-0.9,5.4,1.4,6.9l32.1,21.1c7.3,5,12.1,12.9,13.3,21.8c0.9,5.9,3.7,11.4,8,15.7
		c5.4,5.4,12.6,8.4,20.2,8.4c1,0,2-0.1,3-0.2c9.9-1,18.6-7.2,22.9-16.2c4.3-9,3.5-19.6-1.9-28c-4.5-6.9-11.8-11.5-20-12.6
		c-8.6-1.1-16.4-5.9-21.2-13.2l-19.3-29.4c5.8-9.4,10.1-19.7,12.7-30.5l34.4-7.2c8.7-1.6,17.7,0.6,24.8,6c4.9,3.6,10.7,5.5,16.7,5.5
		c8.7,0,16.9-3.9,22.3-10.7C412.1,217.7,414.2,208.8,412.4,200.4L412.4,200.4z"/>
	<path d="M193.9,170.6c-2.8,0-5,2.2-5,5c0,9.9-8,18-18,18c-9.9,0-18-8-18-18c0-9.9,8-18,18-18c2.8,0,5-2.2,5-5s-2.2-5-5-5
		c-15.4,0-28,12.5-28,28c0,15.4,12.5,28,28,28c15.4,0,28-12.5,28-28C198.9,172.8,196.6,170.6,193.9,170.6"/>
	<path d="M258.1,233c0-2.8-2.2-5-5-5c-6.8,0-12.2-5.5-12.2-12.2c0-6.8,5.5-12.2,12.2-12.2c6.8,0,12.2,5.5,12.2,12.2c0,2.8,2.2,5,5,5
		c2.8,0,5-2.2,5-5c0-12.3-10-22.2-22.2-22.2c-12.3,0-22.2,10-22.2,22.2c0,12.3,10,22.2,22.2,22.2C255.9,238,258.1,235.8,258.1,233"
		/>
	<path d="M176.6,249.3c-2.8,0-5,2.2-5,5c0,2.8,2.2,5,5,5c8.6,0,15.6-7,15.6-15.6c0-8.6-7-15.6-15.6-15.6c-8.6,0-15.6,7-15.6,15.6
		c0,2.8,2.2,5,5,5c2.8,0,5-2.2,5-5c0-3.1,2.5-5.6,5.6-5.6c3.1,0,5.6,2.5,5.6,5.6C182.2,246.8,179.7,249.3,176.6,249.3L176.6,249.3z"
		/>
	<path d="M221.8,129.7c-0.7,2.7,0.9,5.4,3.5,6.1c12.5,3.3,23.8,9.9,32.9,19c2,2,5.1,2,7.1,0c2-2,2-5.1,0-7.1
		C255,137.4,242,130,227.9,126.2C225.2,125.5,222.5,127.1,221.8,129.7"/>
	<path d="M206.5,123.4c-2.8,0-5,2.2-5,5c0,2.8,2.2,5,5,5c1.4,0,2.7,0,4.1,0.1h0.3c2.8,0.1,5.1-2.1,5.1-4.9c0.1-2.8-2.1-5.1-4.9-5.1
		C209.7,123.5,208.1,123.4,206.5,123.4"/>
</g>
</svg>
