<?xml version="1.0" encoding="utf-8"?>
<!-- Generator: Adobe Illustrator 22.0.1, SVG Export Plug-In . SVG Version: 6.00 Build 0)  -->
<svg version="1.1" id="Слой_1" xmlns="http://www.w3.org/2000/svg" xmlns:xlink="http://www.w3.org/1999/xlink" x="0px" y="0px"
	 viewBox="0 0 512.5 512.2" enable-background="new 0 0 512.5 512.2" xml:space="preserve">
<path d="M256,512.2c125.4,0,233-66.6,256-158.8c0.6-2.8,0.6-5.7,0-8.5c-14.2-55.6-59.7-103.7-124.9-132.2c-4.2-1.4-8.8,0.6-10.6,4.7
	c-1.8,4.1-0.1,8.8,3.8,10.9c49,21.3,85.3,54.3,104.4,92.5c-39.6-38.5-128.2-64.6-228.7-64.6c-100.5,0-189.2,26.1-228.8,64.7
	C57.1,259.3,131.7,214,222.9,205c2.3-0.2,4.4-1.3,5.8-3.1s2.1-4,1.9-6.3c-0.2-2.3-1.3-4.4-3.1-5.8c-1.8-1.4-4-2.1-6.3-1.9
	C109.5,199.1,20.9,262.1,0.5,345c-0.6,2.8-0.6,5.7,0,8.5C23.1,445.5,130.6,512.2,256,512.2 M256,495.1
	c-102.4,0-192.2-46.6-227.1-114.2c40.4,37.4,127.9,63,227.1,63c99.2,0,186.5-25.6,227-62.9C447.9,448.7,358.4,495.1,256,495.1
	 M64.2,385.8c2.7-11.7,4.1-23.7,4.1-35.8c0-12-1.4-24-4.1-35.8c25.6-13.9,53.2-23.9,81.8-29.5c-24,40.2-24,90.4,0,130.6
	C117.4,409.7,89.9,399.7,64.2,385.8 M366.1,415.3c23.9-40.2,23.9-90.3,0-130.6c25.8,5.3,50.7,13.9,74.3,25.6
	c-6.9,26.1-6.9,53.6,0,79.7C416.8,401.6,391.9,410.1,366.1,415.3 M485.6,350c-7.1,12.8-17.6,23.6-30.2,31.1
	c-4.6-20.5-4.6-41.7,0-62.1c12.8,7.4,23.3,18.2,30.5,31.1H485.6z M300.1,324.4c-4.4-7.4-10.6-13.6-18-18c-0.1-1-0.1-1.9,0-2.9
	c-0.2-8.7,5-16.6,13-20.1c8-3.4,17.3-1.6,23.4,4.5c6.2,6.2,8,15.4,4.5,23.4c-3.4,8-11.3,13.1-20,13C302,324.5,301,324.5,300.1,324.4
	 M290.2,350c0,18.9-15.3,34.1-34.1,34.1c-18.9,0-34.1-15.3-34.1-34.1c0-18.9,15.3-34.1,34.1-34.1C274.9,315.9,290.2,331.2,290.2,350
	 M278.6,273.8c-7.8,6.4-12.7,15.6-13.7,25.6c-2.8-0.5-5.7-0.8-8.5-0.9c-28.3,0-51.2,22.9-51.2,51.2c0,28.3,22.9,51.2,51.2,51.2
	s51.2-22.9,51.2-51.2c0-2.9-0.3-5.7-0.9-8.5c14.2-1.3,26.4-10.3,31.8-23.5c5.4-13.2,3-28.2-6.2-39.1l9.6,1.5
	c33.3,40.6,33.3,99.1,0,139.8c-28.4,4.6-57.1,6.9-85.9,6.9c-28.8,0-57.5-2.3-85.8-6.9c-33.4-40.6-33.4-99.2,0-139.8
	c28.4-4.6,57.1-6.9,85.8-6.9C263.7,273.2,271.2,273.4,278.6,273.8 M48.9,324.4c1.6,8.4,2.4,17,2.4,25.6c0,8.6-0.8,17.2-2.4,25.6
	c-9.4-6.7-17.2-15.4-22.7-25.6C31.7,339.9,39.4,331.1,48.9,324.4"/>
<path d="M243.2,219c-0.4,6.8,1.9,13.4,6.4,18.5c4.5,5.1,10.8,8.2,17.6,8.6h1.6c6.3,0,12.4-2.2,17.1-6.4l0.9-0.6c9.4,5,21,3.7,29-3.4
	l96.4-84.7c4.5,5.1,10.8,8.1,17.6,8.5h1.6c6.3,0,12.4-2.2,17.1-6.4l6.4-5.6c8.1-7.2,10.8-18.6,6.7-28.7L495,89.8
	C508.7,77.6,514.9,59,511.2,41C507.5,23,494.5,8.4,477,2.6c-17.4-5.8-36.6-1.8-50.3,10.4l-32.9,29.2c-9.4-5.2-21.1-4-29.3,3.1
	l-6.1,5.6c-5.1,4.5-8.2,10.8-8.7,17.6c-0.4,6.8,1.9,13.5,6.4,18.6l-96.4,84.6c-8.1,7.2-10.9,18.7-6.8,28.8l-1.1,1
	C246.7,205.9,243.6,212.2,243.2,219 M369.4,63.8l6.1-5.7c3.5-3.1,8.9-2.8,12,0.8l22.6,25.6c1.5,1.8,3.6,3,5.9,3.2
	c2.3,0.2,4.6-0.5,6.4-2.1c1.7-1.5,2.8-3.6,2.9-5.9c0.1-2.3-0.6-4.5-2.1-6.2l-17.1-19.2l32.2-28.4c9.1-8.7,22.1-11.7,34.1-7.9
	c11.9,3.8,20.8,13.9,23.1,26.3c2.3,12.3-2.4,24.9-12.1,32.8L445,111.1c-1.7,1.5-2.7,3.6-2.9,5.8c-0.1,2.3,0.6,4.5,2.1,6.2
	c1.5,1.7,2.3,3.9,2.1,6.1c-0.1,2.3-1.2,4.4-2.9,5.9l-6.4,5.6c-1.7,1.5-3.9,2.3-6.1,2.1c-2.3-0.1-4.4-1.2-5.9-2.9l-5.6-6.4
	l-34.1-38.8L368.7,76c-1.6-1.7-2.4-4-2.3-6.3C366.5,67.4,367.6,65.3,369.4,63.8 M263.1,214.2l6.4-5.6c1.7-1.5,2.8-3.6,2.9-5.9
	c0.1-2.3-0.6-4.5-2.1-6.2c-1.5-1.7-2.3-3.9-2.1-6.1c0.1-2.3,1.1-4.4,2.8-5.9l96-84.6l34.1,38.4l-96.3,84.7c-3.6,3.1-8.9,2.7-12-0.9
	c-3.1-3.5-8.5-3.9-12-0.8l-6.4,5.6c-1.7,1.5-4,2.3-6.2,2.1c-2.2-0.2-4.3-1.2-5.8-2.9c-1.5-1.7-2.3-4-2.1-6.2
	C260.3,217.7,261.4,215.6,263.1,214.2"/>
</svg>
