<?xml version="1.0" encoding="utf-8"?>
<!-- Generator: Adobe Illustrator 22.0.1, SVG Export Plug-In . SVG Version: 6.00 Build 0)  -->
<svg version="1.1" id="Слой_1" xmlns="http://www.w3.org/2000/svg" xmlns:xlink="http://www.w3.org/1999/xlink" x="0px" y="0px"
	 viewBox="0 0 448.3 79.6" enable-background="new 0 0 448.3 79.6" xml:space="preserve">
<rect fill="#6C194B" width="103.8" height="79.6"/>
<path fill-rule="evenodd" clip-rule="evenodd" fill="#6B1647" d="M432.3,19.2V6.7h4.3c0.9,0,1.5,0.1,2,0.3c0.4,0.2,0.8,0.6,1.1,1.2
	c0.3,0.6,0.4,1.2,0.4,1.9c0,0.9-0.2,1.6-0.7,2.3c-0.4,0.6-1.1,1-2,1.2c0.3,0.2,0.6,0.4,0.8,0.6c0.4,0.4,0.7,1,1.1,1.7l1.7,3.4h-1.6
	l-1.3-2.6c-0.4-0.8-0.7-1.3-0.9-1.7c-0.2-0.4-0.4-0.7-0.6-0.8c-0.2-0.2-0.4-0.3-0.6-0.3c-0.1,0-0.4-0.1-0.7-0.1h-1.5v5.6H432.3z
	 M433.5,12.2h2.7c0.6,0,1-0.1,1.4-0.2c0.3-0.2,0.6-0.4,0.7-0.8c0.2-0.3,0.3-0.7,0.3-1.1c0-0.6-0.2-1.1-0.5-1.5
	c-0.3-0.4-0.9-0.6-1.6-0.6h-3V12.2z M436.4,1c-3.3,0-6.3,1.3-8.4,3.5c-2.2,2.2-3.5,5.1-3.5,8.4c0,3.3,1.3,6.3,3.5,8.4
	c2.2,2.2,5.1,3.5,8.4,3.5c3.3,0,6.3-1.3,8.4-3.5c2.2-2.2,3.5-5.1,3.5-8.4c0-3.3-1.3-6.3-3.5-8.4C442.6,2.4,439.7,1,436.4,1
	 M443.5,5.8c-1.8-1.8-4.4-3-7.2-3c-2.8,0-5.3,1.1-7.2,3c-1.8,1.8-3,4.4-3,7.2c0,2.8,1.1,5.3,3,7.2c1.8,1.8,4.4,3,7.2,3
	c2.8,0,5.3-1.1,7.2-3c1.8-1.8,3-4.4,3-7.2C446.5,10.2,445.4,7.7,443.5,5.8"/>
<path fill="#FFFFFF" d="M53,50c0,6.8-2.3,12.5-6.9,17.3C41.5,72,35.8,74.4,29,74.4c-6.7,0-12.4-2.3-17-6.9
	c-4.6-4.6-6.9-10.3-6.9-17.1c0-6.6,2.3-12.3,7-17c4.7-4.7,10.3-7.1,16.8-7.1c6.6,0,12.3,2.3,17,6.9C50.7,37.9,53,43.5,53,50
	 M43.1,50.5c0-4.2-1.3-7.7-3.9-10.6c-2.6-2.8-6-4.3-10.2-4.3c-4.1,0-7.4,1.5-10,4.4c-2.6,2.9-3.9,6.4-3.9,10.5
	c0,4.2,1.3,7.6,3.9,10.4c2.6,2.8,6,4.2,10.1,4.2c4.1,0,7.5-1.4,10.1-4.2C41.8,58,43.1,54.6,43.1,50.5"/>
<path fill="#FFFFFF" d="M96.5,70.7c1.1,1.4,0.5,2.5-1.2,2.5h-5.7c-1.7,0-3.9-1.1-5-2.5L71.6,53c-1-1.4-1.9-1.1-1.9,0.6V70
	c0,1.7-1.4,3.1-3.1,3.1h-3.3c-1.7,0-3.1-1.4-3.1-3.1V10.4c0-1.7,1.4-3.1,3.1-3.1h3.3c1.7,0,3.1,1.4,3.1,3.1v35.3c0,1.7,0.9,2,2,0.7
	l13.4-16.2c1.1-1.3,3.4-2.4,5.1-2.4H95c1.7,0,2.2,1.1,1.1,2.4l-14.2,17c-1.1,1.3-1.1,3.5-0.1,4.8L96.5,70.7z"/>
<path fill="#6B1647" d="M140.4,33.3c0,1.7-1.4,3.1-3.1,3.1h-5.1c-1.7,0-3.1,1.4-3.1,3.1V70c0,1.7-1.4,3.1-3.1,3.1h-3.5
	c-1.7,0-3.1-1.4-3.1-3.1V39.5c0-1.7-1.4-3.1-3.1-3.1H111c-1.7,0-3.1-1.4-3.1-3.1v-2.4c0-1.7,1.4-3.1,3.1-3.1h26.2
	c1.7,0,3.1,1.4,3.1,3.1V33.3z"/>
<path fill="#6B1647" d="M191.2,70c0,1.7-1.4,3.1-3.1,3.1h-3.3c-1.7,0-3.1-1.3-3.1-2.8c0-1.5-1.1-2-2.5-0.9c0,0-6.3,4.8-12.4,4.8
	c-6.7,0-12.3-2.3-16.7-6.9c-4.4-4.6-6.5-10.3-6.5-17c0-6.6,2.2-12.2,6.6-16.8c4.4-4.6,9.8-6.9,16.3-6.9c6.2,0,11.1,2.1,14.8,6.4
	v-2.1c0-1.7,1.4-3.1,3.1-3.1h3.7c1.7,0,3.1,1.4,3.1,3.1V70z M181.7,50.7c0-4.1-1.4-7.6-4.1-10.6c-2.7-3-6.1-4.4-10.1-4.4
	c-3.9,0-7.2,1.5-10,4.4c-2.7,2.9-4.1,6.4-4.1,10.3c0,4,1.4,7.5,4.2,10.5c2.8,3,6.1,4.5,10.1,4.5c3.7,0,7-1.5,9.8-4.5
	C180.3,57.9,181.7,54.5,181.7,50.7"/>
<path fill="#6B1647" d="M236.5,70.2c0.6,1.6-0.3,2.9-2.1,2.9h-3.9c-1.7,0-3.6-1.3-4.1-3l-8.8-26.1c-0.6-1.6-1.4-1.6-2,0L207,70.2
	c-0.5,1.6-2.4,3-4.1,3h-3.8c-1.7,0-2.6-1.3-2.1-2.9l14.2-39.5c0.6-1.6,2.5-2.9,4.2-2.9h2.5c1.7,0,3.6,1.3,4.2,2.9L236.5,70.2z"/>
<path fill="#6B1647" d="M277.6,59.3c0,4.7-1.7,8.3-5.2,10.7c-3,2.1-7.1,3.2-12,3.2h-15c-1.7,0-3.1-1.4-3.1-3.1V30.9
	c0-1.7,1.4-3.1,3.1-3.1h3.5c1.7,0,3.1,1.4,3.1,3.1v11.4c0,1.7,1.4,3.1,3.1,3.2c0,0,11.3,0.3,13.8,1
	C274.8,48.3,277.6,52.6,277.6,59.3 M255.2,53.6c-1.7,0-3.1,1.4-3.1,3.1v5.2c0,1.7,1.4,3.1,3.1,3.1h1.6c1.7,0,4.5-0.3,6.1-0.7
	c0,0,4.8-1.2,4.8-5c0-3.8-2.7-5.7-8.1-5.7H255.2z"/>
<path fill="#6B1647" d="M336.5,70c0,1.7-1.4,3.1-3.1,3.1h-3.2c-1.7,0-3.1-1.4-3.1-3.1V45.8c0-1.7-0.5-1.8-1.2-0.2l-10.3,24.8
	c-0.7,1.6-2.6,2.9-4.3,2.9h-1.2c-1.7,0-3.7-1.3-4.3-2.9l-10.3-24.8c-0.6-1.6-1.2-1.5-1.2,0.2V70c0,1.7-1.4,3.1-3.1,3.1H288
	c-1.7,0-3.1-1.4-3.1-3.1V30.9c0-1.7,1.4-3.1,3.1-3.1h6.4c1.7,0,3.6,1.3,4.3,2.9l10.9,27.8c0.6,1.6,1.6,1.6,2.3,0l10.8-27.8
	c0.6-1.6,2.5-2.9,4.2-2.9h6.4c1.7,0,3.1,1.4,3.1,3.1V70z"/>
<path fill="#6B1647" d="M391.5,50c0,6.8-2.3,12.5-6.9,17.3c-4.6,4.7-10.3,7.1-17.1,7.1c-6.7,0-12.4-2.3-17-6.9
	c-4.6-4.6-6.9-10.3-6.9-17.1c0-6.6,2.3-12.3,7-17c4.6-4.7,10.3-7.1,16.8-7.1c6.6,0,12.3,2.3,17.1,6.9
	C389.2,37.9,391.5,43.5,391.5,50 M381.6,50.5c0-4.2-1.3-7.7-3.9-10.6c-2.6-2.8-6-4.3-10.2-4.3c-4.1,0-7.4,1.5-10,4.4
	c-2.6,2.9-3.9,6.4-3.9,10.5c0,4.2,1.3,7.6,3.9,10.4c2.6,2.8,6,4.2,10.1,4.2c4.1,0,7.5-1.4,10.1-4.2C380.3,58,381.6,54.6,381.6,50.5"
	/>
<path fill="#6B1647" d="M434.4,70.2c0.6,1.6-0.3,2.9-2.1,2.9h-3.9c-1.7,0-3.6-1.3-4.1-3l-8.8-26.1c-0.6-1.6-1.4-1.6-2,0l-8.7,26.1
	c-0.5,1.6-2.4,3-4.1,3H397c-1.7,0-2.6-1.3-2.1-2.9l14.2-39.5c0.6-1.6,2.5-2.9,4.2-2.9h2.6c1.7,0,3.6,1.3,4.2,2.9L434.4,70.2z"/>
</svg>
