<?xml version="1.0" encoding="utf-8"?>
<!-- Generator: Adobe Illustrator 22.0.1, SVG Export Plug-In . SVG Version: 6.00 Build 0)  -->
<svg version="1.1" id="Слой_1" xmlns="http://www.w3.org/2000/svg" xmlns:xlink="http://www.w3.org/1999/xlink" x="0px" y="0px"
	 viewBox="0 0 30 47" enable-background="new 0 0 30 47" xml:space="preserve">
<g>
	<path d="M15,2c7.2,0,13,5.8,13,13v17c0,7.2-5.8,13-13,13C7.8,45,2,39.2,2,32V15C2,7.8,7.8,2,15,2 M15,0L15,0C6.8,0,0,6.7,0,15v17
		c0,8.2,6.7,15,15,15h0c8.2,0,15-6.7,15-15V15C30,6.7,23.2,0,15,0L15,0z"/>
</g>
<path fill-rule="evenodd" clip-rule="evenodd" d="M15,23L15,23c-1.1,0-2-0.9-2-2v-5.9c0-1.1,0.9-2,2-2h0c1.1,0,2,0.9,2,2V21
	C17,22.1,16.1,23,15,23z"/>
</svg>
