<svg xmlns="http://www.w3.org/2000/svg" style="display: none;">

    <symbol id="icon-logo" viewBox="0 0 448.3 79.6">
        <rect fill="#6C194B" width="103.8" height="79.6"/>
        <path fill-rule="evenodd" clip-rule="evenodd" fill="#6B1647" d="M432.3,19.2V6.7h4.3c0.9,0,1.5,0.1,2,0.3c0.4,0.2,0.8,0.6,1.1,1.2
	c0.3,0.6,0.4,1.2,0.4,1.9c0,0.9-0.2,1.6-0.7,2.3c-0.4,0.6-1.1,1-2,1.2c0.3,0.2,0.6,0.4,0.8,0.6c0.4,0.4,0.7,1,1.1,1.7l1.7,3.4h-1.6
	l-1.3-2.6c-0.4-0.8-0.7-1.3-0.9-1.7c-0.2-0.4-0.4-0.7-0.6-0.8c-0.2-0.2-0.4-0.3-0.6-0.3c-0.1,0-0.4-0.1-0.7-0.1h-1.5v5.6H432.3z
	 M433.5,12.2h2.7c0.6,0,1-0.1,1.4-0.2c0.3-0.2,0.6-0.4,0.7-0.8c0.2-0.3,0.3-0.7,0.3-1.1c0-0.6-0.2-1.1-0.5-1.5
	c-0.3-0.4-0.9-0.6-1.6-0.6h-3V12.2z M436.4,1c-3.3,0-6.3,1.3-8.4,3.5c-2.2,2.2-3.5,5.1-3.5,8.4c0,3.3,1.3,6.3,3.5,8.4
	c2.2,2.2,5.1,3.5,8.4,3.5c3.3,0,6.3-1.3,8.4-3.5c2.2-2.2,3.5-5.1,3.5-8.4c0-3.3-1.3-6.3-3.5-8.4C442.6,2.4,439.7,1,436.4,1
	 M443.5,5.8c-1.8-1.8-4.4-3-7.2-3c-2.8,0-5.3,1.1-7.2,3c-1.8,1.8-3,4.4-3,7.2c0,2.8,1.1,5.3,3,7.2c1.8,1.8,4.4,3,7.2,3
	c2.8,0,5.3-1.1,7.2-3c1.8-1.8,3-4.4,3-7.2C446.5,10.2,445.4,7.7,443.5,5.8"/>
        <path fill="#FFFFFF" d="M53,50c0,6.8-2.3,12.5-6.9,17.3C41.5,72,35.8,74.4,29,74.4c-6.7,0-12.4-2.3-17-6.9
	c-4.6-4.6-6.9-10.3-6.9-17.1c0-6.6,2.3-12.3,7-17c4.7-4.7,10.3-7.1,16.8-7.1c6.6,0,12.3,2.3,17,6.9C50.7,37.9,53,43.5,53,50
	 M43.1,50.5c0-4.2-1.3-7.7-3.9-10.6c-2.6-2.8-6-4.3-10.2-4.3c-4.1,0-7.4,1.5-10,4.4c-2.6,2.9-3.9,6.4-3.9,10.5
	c0,4.2,1.3,7.6,3.9,10.4c2.6,2.8,6,4.2,10.1,4.2c4.1,0,7.5-1.4,10.1-4.2C41.8,58,43.1,54.6,43.1,50.5"/>
        <path fill="#FFFFFF" d="M96.5,70.7c1.1,1.4,0.5,2.5-1.2,2.5h-5.7c-1.7,0-3.9-1.1-5-2.5L71.6,53c-1-1.4-1.9-1.1-1.9,0.6V70
	c0,1.7-1.4,3.1-3.1,3.1h-3.3c-1.7,0-3.1-1.4-3.1-3.1V10.4c0-1.7,1.4-3.1,3.1-3.1h3.3c1.7,0,3.1,1.4,3.1,3.1v35.3c0,1.7,0.9,2,2,0.7
	l13.4-16.2c1.1-1.3,3.4-2.4,5.1-2.4H95c1.7,0,2.2,1.1,1.1,2.4l-14.2,17c-1.1,1.3-1.1,3.5-0.1,4.8L96.5,70.7z"/>
        <path fill="#6B1647" d="M140.4,33.3c0,1.7-1.4,3.1-3.1,3.1h-5.1c-1.7,0-3.1,1.4-3.1,3.1V70c0,1.7-1.4,3.1-3.1,3.1h-3.5
	c-1.7,0-3.1-1.4-3.1-3.1V39.5c0-1.7-1.4-3.1-3.1-3.1H111c-1.7,0-3.1-1.4-3.1-3.1v-2.4c0-1.7,1.4-3.1,3.1-3.1h26.2
	c1.7,0,3.1,1.4,3.1,3.1V33.3z"/>
        <path fill="#6B1647" d="M191.2,70c0,1.7-1.4,3.1-3.1,3.1h-3.3c-1.7,0-3.1-1.3-3.1-2.8c0-1.5-1.1-2-2.5-0.9c0,0-6.3,4.8-12.4,4.8
	c-6.7,0-12.3-2.3-16.7-6.9c-4.4-4.6-6.5-10.3-6.5-17c0-6.6,2.2-12.2,6.6-16.8c4.4-4.6,9.8-6.9,16.3-6.9c6.2,0,11.1,2.1,14.8,6.4
	v-2.1c0-1.7,1.4-3.1,3.1-3.1h3.7c1.7,0,3.1,1.4,3.1,3.1V70z M181.7,50.7c0-4.1-1.4-7.6-4.1-10.6c-2.7-3-6.1-4.4-10.1-4.4
	c-3.9,0-7.2,1.5-10,4.4c-2.7,2.9-4.1,6.4-4.1,10.3c0,4,1.4,7.5,4.2,10.5c2.8,3,6.1,4.5,10.1,4.5c3.7,0,7-1.5,9.8-4.5
	C180.3,57.9,181.7,54.5,181.7,50.7"/>
        <path fill="#6B1647" d="M236.5,70.2c0.6,1.6-0.3,2.9-2.1,2.9h-3.9c-1.7,0-3.6-1.3-4.1-3l-8.8-26.1c-0.6-1.6-1.4-1.6-2,0L207,70.2
	c-0.5,1.6-2.4,3-4.1,3h-3.8c-1.7,0-2.6-1.3-2.1-2.9l14.2-39.5c0.6-1.6,2.5-2.9,4.2-2.9h2.5c1.7,0,3.6,1.3,4.2,2.9L236.5,70.2z"/>
        <path fill="#6B1647" d="M277.6,59.3c0,4.7-1.7,8.3-5.2,10.7c-3,2.1-7.1,3.2-12,3.2h-15c-1.7,0-3.1-1.4-3.1-3.1V30.9
	c0-1.7,1.4-3.1,3.1-3.1h3.5c1.7,0,3.1,1.4,3.1,3.1v11.4c0,1.7,1.4,3.1,3.1,3.2c0,0,11.3,0.3,13.8,1
	C274.8,48.3,277.6,52.6,277.6,59.3 M255.2,53.6c-1.7,0-3.1,1.4-3.1,3.1v5.2c0,1.7,1.4,3.1,3.1,3.1h1.6c1.7,0,4.5-0.3,6.1-0.7
	c0,0,4.8-1.2,4.8-5c0-3.8-2.7-5.7-8.1-5.7H255.2z"/>
        <path fill="#6B1647" d="M336.5,70c0,1.7-1.4,3.1-3.1,3.1h-3.2c-1.7,0-3.1-1.4-3.1-3.1V45.8c0-1.7-0.5-1.8-1.2-0.2l-10.3,24.8
	c-0.7,1.6-2.6,2.9-4.3,2.9h-1.2c-1.7,0-3.7-1.3-4.3-2.9l-10.3-24.8c-0.6-1.6-1.2-1.5-1.2,0.2V70c0,1.7-1.4,3.1-3.1,3.1H288
	c-1.7,0-3.1-1.4-3.1-3.1V30.9c0-1.7,1.4-3.1,3.1-3.1h6.4c1.7,0,3.6,1.3,4.3,2.9l10.9,27.8c0.6,1.6,1.6,1.6,2.3,0l10.8-27.8
	c0.6-1.6,2.5-2.9,4.2-2.9h6.4c1.7,0,3.1,1.4,3.1,3.1V70z"/>
        <path fill="#6B1647" d="M391.5,50c0,6.8-2.3,12.5-6.9,17.3c-4.6,4.7-10.3,7.1-17.1,7.1c-6.7,0-12.4-2.3-17-6.9
	c-4.6-4.6-6.9-10.3-6.9-17.1c0-6.6,2.3-12.3,7-17c4.6-4.7,10.3-7.1,16.8-7.1c6.6,0,12.3,2.3,17.1,6.9
	C389.2,37.9,391.5,43.5,391.5,50 M381.6,50.5c0-4.2-1.3-7.7-3.9-10.6c-2.6-2.8-6-4.3-10.2-4.3c-4.1,0-7.4,1.5-10,4.4
	c-2.6,2.9-3.9,6.4-3.9,10.5c0,4.2,1.3,7.6,3.9,10.4c2.6,2.8,6,4.2,10.1,4.2c4.1,0,7.5-1.4,10.1-4.2C380.3,58,381.6,54.6,381.6,50.5"
        />
        <path fill="#6B1647" d="M434.4,70.2c0.6,1.6-0.3,2.9-2.1,2.9h-3.9c-1.7,0-3.6-1.3-4.1-3l-8.8-26.1c-0.6-1.6-1.4-1.6-2,0l-8.7,26.1
	c-0.5,1.6-2.4,3-4.1,3H397c-1.7,0-2.6-1.3-2.1-2.9l14.2-39.5c0.6-1.6,2.5-2.9,4.2-2.9h2.6c1.7,0,3.6,1.3,4.2,2.9L434.4,70.2z"/>
    </symbol>


    <symbol id="icon-instruction" viewBox="-41 183.7 512 474.4">
        <g>
            <g>
                <path d="M256.6,280.4c-8.9-10-22.7-15.7-38-15.7c-27.3,0-51.6,18.6-54.3,41.5c-1.2,10.5,2,20.6,9.1,28.6
			c8.7,9.8,22.5,15.4,37.6,15.4c28,0,52-18.2,54.6-41.5C266.9,298.5,263.7,288.4,256.6,280.4z M243.9,306.2
			c-1.4,11.9-16.4,22-32.8,22c-8.8,0-16.7-3-21.2-8.1c-3-3.3-4.2-7.2-3.7-11.4c1.4-11.7,16.5-22,32.4-22c8.9,0,16.9,3.1,21.5,8.3
			C242.2,297.4,244.5,301.1,243.9,306.2z"/>
            </g>
        </g>
        <g>
            <g>
                <path d="M260.8,517.1c-2.8-1.8-9.2-6.2-4-36.1c0.1-0.7,0.7-3.1,1.5-6.8c1.8-8.6,5.3-24.5,9-42.2c0,0,0-0.1,0-0.1
			c3.8-19.2,0.8-36-8.7-48.6c-8.6-11.3-22.2-18.3-38.3-19.6c-23.8-1.9-48.7,12.3-56.3,26.3c-3.5,6.2-1.8,11.2-0.5,13.7
			c1.6,3,4,4.8,5.8,6c2.7,1.9,9,6.4,3,36.3c-0.6,2.7-9,45.4-10.1,51.4c0,0,0,0.1,0,0.1c-3.3,19.3,0,36.1,10,48.3
			c16.1,19.6,40.7,18.7,41.7,18.7c22.9,0,45.8-14.2,52.7-27.8c3.4-6.3,1.5-11.3,0.1-13.7C265.1,519.9,262.6,518.3,260.8,517.1z
			 M245.8,427.4c-3.7,17.7-7.1,33.5-9,42.1c-1.3,5.8-1.5,7-1.6,7.5c0,0,0,0.1,0,0.1c-5.6,32.1,0.1,46.2,8.1,54c-2.2,2-5.2,4.1-8.9,6
			c-7.3,3.8-15.4,5.7-22.2,5.3c-9.9-0.5-17.8-4.1-22.8-10.3c-5.8-7.3-7.7-17.9-5.5-30.8c1.2-6.5,9.6-49.2,9.9-50.9c0,0,0-0.1,0-0.1
			c6.4-31.9,1.1-46.1-6.7-54.2c2.2-1.9,5.3-3.9,9-5.7c7.4-3.6,15.5-5.3,22.3-4.8c9.9,0.8,17.7,4.6,22.5,10.9
			C246.7,403.9,248.3,414.6,245.8,427.4z"/>
            </g>
        </g>
        <g>
            <g>
                <path d="M418.6,559.9c33.8-40.6,52.4-90.7,52.4-142c0-62.8-26.8-121.7-75.4-166c-48.3-44-112.4-68.2-180.6-68.2
			S82.7,207.9,34.4,251.9C-14.2,296.2-41,355.1-41,417.9s26.8,121.7,75.4,166c48.3,44,112.4,68.2,180.6,68.2
			c42.6,0,84.6-9.7,121.9-28.2l89.2,33.4c1.4,0.5,2.9,0.8,4.3,0.8c3,0,6-1.1,8.3-3.3c3.4-3.1,4.8-7.9,3.5-12.4L418.6,559.9z
			 M340.4,599c-3.3-1.2-6.9-1-10,0.6c-34.9,18.3-74.9,27.9-115.4,27.9c-127.6,0-231.4-94-231.4-209.6S87.4,208.3,215,208.3
			s231.4,94,231.4,209.6c0,48.1-17.5,93.3-50.7,130.8c-2.8,3.1-3.8,7.5-2.6,11.5l18.7,65.5L340.4,599z"/>
            </g>
        </g>
    </symbol>


    <symbol id="icon-pharmacy" viewBox="0 0 372 349">
        <g>
            <path d="M310,318H62c-2.8,0-5-2.2-5-5s2.2-5,5-5h248c2.8,0,5,2.2,5,5S312.8,318,310,318"/>
            <path d="M310,183.8c-1.3,0-2.6-0.5-3.5-1.5L186,61.8L65.6,182.3c-2,2-5.1,2-7.1,0c-2-2-2-5.1,0-7.1l124-124
		c2-2,5.1-2,7.1,0l124,124c2,2,2,5.1,0,7.1C312.6,183.3,311.3,183.8,310,183.8"/>
            <path d="M370.6,182.4l-181-181c-1.9-1.9-5.2-1.9-7.1,0l-181,181c-2,2-2,5.1,0,7.1c2,2,5.1,2,7.1,0L57,141V344
		c0,2.8,2.2,5,5,5h248c2.8,0,5-2.2,5-5V141l48.5,48.5c1,1,2.3,1.5,3.5,1.5s2.6-0.5,3.5-1.5C372.5,187.5,372.5,184.4,370.6,182.4
		 M305,339H67V131L186,12l119,119V339z"/>
            <path d="M203.1,279.9H169c-2.8,0-5-2.2-5-5v-47.2h-47.2c-2.8,0-5-2.2-5-5v-34.1c0-2.8,2.2-5,5-5H164v-47.2
		c0-2.8,2.2-5,5-5h34.1c2.8,0,5,2.2,5,5v47.2h47.3c2.8,0,5,2.2,5,5v34.1c0,2.8-2.2,5-5,5h-47.3v47.2
		C208.1,277.6,205.8,279.9,203.1,279.9 M174,269.9h24.1v-47.2c0-2.8,2.2-5,5-5h47.3v-24.1h-47.3c-2.8,0-5-2.2-5-5v-47.2H174v47.2
		c0,2.8-2.2,5-5,5h-47.2v24.1H169c2.8,0,5,2.2,5,5V269.9z"/>
        </g>
    </symbol>


    <symbol id="icon-drop" viewBox="0 0 284 392.4">
        <path d="M214.4,96c-18.8-26.4-38-54-52.8-82.8c-4-8-12.4-13.2-21.2-13.2s-17.2,4.8-21.2,13.2c-14.4,28.4-32.8,55.2-50.4,81.2
	C33.2,146,0,194.4,0,248.4c0,83.6,58.8,144,140,144c82,0,144-62,144-144C284,194.8,250,146.8,214.4,96 M140,376.4
	c-72,0-124-54-124-128c0-48.8,32-95.6,65.6-144.8c18-26.4,36.8-54,51.6-83.2c2-4,5.6-4.4,7.2-4.4s5.2,0.4,7.2,4.4
	c15.2,29.6,34.8,57.6,54,84.8C235.6,154,268,200,268,248.4C268,321.2,212.8,376.4,140,376.4"/>
        <path d="M102.4,117.6c-3.6-2.4-8.8-1.6-11.2,2c-13.6,20.8-29.6,44.8-41.2,69.2c-2,4,0,8.8,4,10.8c1.2,0.4,2.4,0.8,3.6,0.8
	c2.8,0,6-1.6,7.2-4.4c11.2-23.6,26.4-46.8,40-66.8C107.2,125.2,106,120.4,102.4,117.6"/>
        <path d="M50.4,208.8c-4-1.6-8.8,0.4-10.4,4.4c-1.6,4.4-3.2,8.8-4,13.2c-0.8,4.4,2,8.4,6.4,9.6H44c3.6,0,7.2-2.8,8-6.4
	c0.8-3.6,1.6-7.2,3.2-10.8C56.8,215.2,54.8,210.8,50.4,208.8"/>
    </symbol>


    <symbol id="icon-virus" viewBox="0 0 413 413">
        <g>
            <path d="M242.6,294.2c-5.5,2.3-11.2,4-17,5.2c-2,0.4-3.5,1.9-3.9,3.9l-7.8,37.6c-2.3,11.4,0.4,23.2,7.5,32.4c4.8,6.5,5,15.4,0.3,22
		c-4.7,6.6-13.1,9.4-20.8,6.9c-7.7-2.5-12.9-9.6-12.9-17.7c0-3.9,1.2-7.7,3.5-10.9c7.1-9.3,9.9-21.2,7.7-32.7l-7.8-37.6
		c-0.4-2-1.9-3.5-3.9-3.9c-11.8-2.4-23-7.1-33.1-13.7c-1.7-1.1-3.8-1.1-5.5,0l-32.1,21.1c-9.7,6.4-16.1,16.7-17.6,28.2
		c-1.2,8-7.4,14.4-15.3,15.7c-8,1.3-15.9-2.6-19.6-9.8c-3.7-7.2-2.3-16,3.4-21.7c2.8-2.8,6.3-4.6,10.2-5.2c11.6-1.5,22-8,28.6-17.7
		l21.1-32.1c1.1-1.7,1.1-3.8,0-5.5c-6.6-10-11.3-21.2-13.7-33c-0.4-2-1.9-3.5-3.9-3.9l-37.6-7.8c-11.4-2.3-23.2,0.4-32.4,7.5
		c-7.6,5.8-18.4,4.8-24.9-2.2c-6.5-7-6.6-17.8-0.3-25c6.4-7.2,17.1-8.3,24.9-2.7c9.3,7.1,21.2,9.9,32.7,7.7l37.6-7.8
		c2-0.4,3.5-1.9,3.9-3.9c2.4-11.8,7.1-23,13.7-33.1c1.1-1.7,1.1-3.8,0-5.5l-21.1-32.1c-6.4-9.7-16.7-16.1-28.2-17.6
		c-8-1.2-14.4-7.4-15.7-15.3c-1.3-8,2.6-15.9,9.8-19.6c7.2-3.7,16-2.3,21.7,3.4c2.8,2.7,4.6,6.3,5.2,10.2c1.5,11.6,8,22,17.7,28.6
		l32.1,21.1c2.3,1.5,5.4,0.9,6.9-1.4c1.5-2.3,0.9-5.4-1.4-6.9L122.3,98c-7.3-5-12.2-12.9-13.3-21.8c-0.9-5.9-3.7-11.4-8-15.7
		c-8.8-8.8-22.3-11-33.4-5.3c-11.1,5.7-17.2,18-15.1,30.3c2.1,12.3,11.9,21.8,24.3,23.5c8.6,1.1,16.4,5.9,21.2,13.2l19.3,29.4
		c-5.8,9.4-10.1,19.7-12.7,30.5l-34.4,7.2c-8.7,1.6-17.7-0.6-24.8-6c-4.9-3.6-10.7-5.5-16.7-5.5c-12.5,0-23.5,8-27.3,19.9
		c-3.8,11.9,0.5,24.9,10.7,32.1c10.2,7.2,23.9,7,33.8-0.5c6.9-5.3,15.8-7.4,24.3-5.7l34.5,7.1c2.6,10.8,6.8,21.1,12.7,30.5L98,290.8
		c-5,7.3-12.9,12.2-21.8,13.3c-6,0.9-11.5,3.7-15.7,8c-8.8,8.8-11,22.3-5.3,33.4c5.7,11.1,18,17.2,30.3,15.1
		c12.3-2.1,21.8-11.9,23.5-24.3c1.1-8.6,5.9-16.4,13.2-21.2l29.4-19.3c9.4,5.8,19.7,10.1,30.5,12.7l7.2,34.4
		c1.6,8.7-0.6,17.7-6,24.8c-3.6,4.9-5.5,10.7-5.4,16.7c0,7.6,3,14.9,8.4,20.3c5.4,5.4,12.7,8.4,20.3,8.4c2.1,0,4.1-0.2,6.1-0.6
		c9.5-2.1,17.3-8.9,20.7-18c3.4-9.1,1.9-19.4-4-27.1c-5.3-6.9-7.4-15.8-5.7-24.3l7.1-34.5c5.3-1.3,10.5-2.9,15.5-5
		c2.5-1.1,3.8-4,2.7-6.5C248,294.3,245.1,293.1,242.6,294.2L242.6,294.2z"/>
            <path d="M169.6,119.3c5.8-2.4,11.7-4.3,17.9-5.6c2-0.4,3.5-1.9,3.9-3.9l7.8-37.6c2.3-11.4-0.4-23.2-7.5-32.4
		c-4.9-6.5-5-15.4-0.3-22c4.7-6.6,13.1-9.4,20.8-6.9c7.7,2.5,12.9,9.6,12.9,17.7c0,3.9-1.2,7.7-3.5,10.8c-7.1,9.3-9.9,21.2-7.7,32.7
		l7.8,37.6c0.4,2,1.9,3.5,3.9,3.9c11.8,2.4,23,7.1,33,13.7c1.7,1.1,3.8,1.1,5.5,0l32.1-21.1c9.7-6.4,16.1-16.7,17.6-28.2
		c1.2-8,7.4-14.4,15.3-15.7c8-1.3,15.9,2.6,19.6,9.8c3.7,7.2,2.3,16-3.4,21.7c-2.8,2.8-6.3,4.6-10.2,5.2c-11.6,1.5-22,8-28.6,17.7
		l-21.1,32.1c-1.1,1.7-1.1,3.8,0,5.5c6.6,10,11.3,21.2,13.7,33c0.4,2,1.9,3.5,3.9,3.9l37.6,7.8c2.6,0.5,5.3,0.8,7.9,0.8
		c8.8,0,17.4-3,24.4-8.3c2.2-1.7,2.6-4.8,0.9-7c-1.7-2.2-4.8-2.6-7-1c-6.9,5.3-15.8,7.4-24.3,5.7l-34.5-7.1
		c-2.6-10.8-6.8-21.1-12.7-30.5l19.3-29.4c5-7.3,13-12.1,21.8-13.3c5.9-0.9,11.4-3.7,15.7-8c8.8-8.8,11-22.3,5.3-33.4
		c-5.7-11.1-18-17.2-30.3-15.1c-12.3,2.1-21.8,11.9-23.5,24.3c-1.1,8.6-5.9,16.4-13.2,21.2l-29.4,19.3c-9.4-5.8-19.7-10.1-30.5-12.7
		l-7.2-34.4c-1.6-8.7,0.6-17.7,6-24.8c3.6-4.9,5.5-10.7,5.5-16.7c0-12.5-8-23.5-19.9-27.3c-11.9-3.8-24.9,0.5-32.1,10.7
		c-7.2,10.2-7,23.9,0.5,33.8c5.3,6.9,7.4,15.8,5.7,24.3l-7.1,34.5c-5.7,1.3-11.2,3.2-16.5,5.4c-2.5,1.1-3.6,4-2.5,6.5
		C164.2,119.1,167.1,120.3,169.6,119.3L169.6,119.3z"/>
            <path d="M412.4,200.4c-2.4-11-11.1-19.6-22.2-21.9c-2.7-0.5-5.3,1.2-5.9,3.9c-0.5,2.7,1.2,5.3,3.9,5.9c9.3,2,15.7,10.7,14.7,20.2
		c-1,9.5-9,16.7-18.6,16.7c-3.9,0-7.7-1.2-10.9-3.5c-9.3-7.1-21.2-9.9-32.7-7.7l-37.6,7.8c-2,0.4-3.5,1.9-3.9,3.9
		c-2.4,11.8-7.1,23-13.7,33c-1.1,1.7-1.1,3.8,0,5.5l21.1,32.1c6.4,9.7,16.7,16.1,28.2,17.6c8,1.2,14.4,7.4,15.7,15.3
		c1.3,8-2.6,15.9-9.8,19.6c-7.2,3.7-16,2.3-21.7-3.4c-2.8-2.8-4.6-6.3-5.2-10.2c-1.5-11.6-8-22-17.7-28.6l-32.1-21.1
		c-2.3-1.5-5.4-0.9-6.9,1.4c-1.5,2.3-0.9,5.4,1.4,6.9l32.1,21.1c7.3,5,12.1,12.9,13.3,21.8c0.9,5.9,3.7,11.4,8,15.7
		c5.4,5.4,12.6,8.4,20.2,8.4c1,0,2-0.1,3-0.2c9.9-1,18.6-7.2,22.9-16.2c4.3-9,3.5-19.6-1.9-28c-4.5-6.9-11.8-11.5-20-12.6
		c-8.6-1.1-16.4-5.9-21.2-13.2l-19.3-29.4c5.8-9.4,10.1-19.7,12.7-30.5l34.4-7.2c8.7-1.6,17.7,0.6,24.8,6c4.9,3.6,10.7,5.5,16.7,5.5
		c8.7,0,16.9-3.9,22.3-10.7C412.1,217.7,414.2,208.8,412.4,200.4L412.4,200.4z"/>
            <path d="M193.9,170.6c-2.8,0-5,2.2-5,5c0,9.9-8,18-18,18c-9.9,0-18-8-18-18c0-9.9,8-18,18-18c2.8,0,5-2.2,5-5s-2.2-5-5-5
		c-15.4,0-28,12.5-28,28c0,15.4,12.5,28,28,28c15.4,0,28-12.5,28-28C198.9,172.8,196.6,170.6,193.9,170.6"/>
            <path d="M258.1,233c0-2.8-2.2-5-5-5c-6.8,0-12.2-5.5-12.2-12.2c0-6.8,5.5-12.2,12.2-12.2c6.8,0,12.2,5.5,12.2,12.2c0,2.8,2.2,5,5,5
		c2.8,0,5-2.2,5-5c0-12.3-10-22.2-22.2-22.2c-12.3,0-22.2,10-22.2,22.2c0,12.3,10,22.2,22.2,22.2C255.9,238,258.1,235.8,258.1,233"
            />
            <path d="M176.6,249.3c-2.8,0-5,2.2-5,5c0,2.8,2.2,5,5,5c8.6,0,15.6-7,15.6-15.6c0-8.6-7-15.6-15.6-15.6c-8.6,0-15.6,7-15.6,15.6
		c0,2.8,2.2,5,5,5c2.8,0,5-2.2,5-5c0-3.1,2.5-5.6,5.6-5.6c3.1,0,5.6,2.5,5.6,5.6C182.2,246.8,179.7,249.3,176.6,249.3L176.6,249.3z"
            />
            <path d="M221.8,129.7c-0.7,2.7,0.9,5.4,3.5,6.1c12.5,3.3,23.8,9.9,32.9,19c2,2,5.1,2,7.1,0c2-2,2-5.1,0-7.1
		C255,137.4,242,130,227.9,126.2C225.2,125.5,222.5,127.1,221.8,129.7"/>
            <path d="M206.5,123.4c-2.8,0-5,2.2-5,5c0,2.8,2.2,5,5,5c1.4,0,2.7,0,4.1,0.1h0.3c2.8,0.1,5.1-2.1,5.1-4.9c0.1-2.8-2.1-5.1-4.9-5.1
		C209.7,123.5,208.1,123.4,206.5,123.4"/>
        </g>
    </symbol>


    <symbol id="icon-eyes" viewBox="0 0 512.5 512.2">
        <path d="M256,512.2c125.4,0,233-66.6,256-158.8c0.6-2.8,0.6-5.7,0-8.5c-14.2-55.6-59.7-103.7-124.9-132.2c-4.2-1.4-8.8,0.6-10.6,4.7
	c-1.8,4.1-0.1,8.8,3.8,10.9c49,21.3,85.3,54.3,104.4,92.5c-39.6-38.5-128.2-64.6-228.7-64.6c-100.5,0-189.2,26.1-228.8,64.7
	C57.1,259.3,131.7,214,222.9,205c2.3-0.2,4.4-1.3,5.8-3.1s2.1-4,1.9-6.3c-0.2-2.3-1.3-4.4-3.1-5.8c-1.8-1.4-4-2.1-6.3-1.9
	C109.5,199.1,20.9,262.1,0.5,345c-0.6,2.8-0.6,5.7,0,8.5C23.1,445.5,130.6,512.2,256,512.2 M256,495.1
	c-102.4,0-192.2-46.6-227.1-114.2c40.4,37.4,127.9,63,227.1,63c99.2,0,186.5-25.6,227-62.9C447.9,448.7,358.4,495.1,256,495.1
	 M64.2,385.8c2.7-11.7,4.1-23.7,4.1-35.8c0-12-1.4-24-4.1-35.8c25.6-13.9,53.2-23.9,81.8-29.5c-24,40.2-24,90.4,0,130.6
	C117.4,409.7,89.9,399.7,64.2,385.8 M366.1,415.3c23.9-40.2,23.9-90.3,0-130.6c25.8,5.3,50.7,13.9,74.3,25.6
	c-6.9,26.1-6.9,53.6,0,79.7C416.8,401.6,391.9,410.1,366.1,415.3 M485.6,350c-7.1,12.8-17.6,23.6-30.2,31.1
	c-4.6-20.5-4.6-41.7,0-62.1c12.8,7.4,23.3,18.2,30.5,31.1H485.6z M300.1,324.4c-4.4-7.4-10.6-13.6-18-18c-0.1-1-0.1-1.9,0-2.9
	c-0.2-8.7,5-16.6,13-20.1c8-3.4,17.3-1.6,23.4,4.5c6.2,6.2,8,15.4,4.5,23.4c-3.4,8-11.3,13.1-20,13C302,324.5,301,324.5,300.1,324.4
	 M290.2,350c0,18.9-15.3,34.1-34.1,34.1c-18.9,0-34.1-15.3-34.1-34.1c0-18.9,15.3-34.1,34.1-34.1C274.9,315.9,290.2,331.2,290.2,350
	 M278.6,273.8c-7.8,6.4-12.7,15.6-13.7,25.6c-2.8-0.5-5.7-0.8-8.5-0.9c-28.3,0-51.2,22.9-51.2,51.2c0,28.3,22.9,51.2,51.2,51.2
	s51.2-22.9,51.2-51.2c0-2.9-0.3-5.7-0.9-8.5c14.2-1.3,26.4-10.3,31.8-23.5c5.4-13.2,3-28.2-6.2-39.1l9.6,1.5
	c33.3,40.6,33.3,99.1,0,139.8c-28.4,4.6-57.1,6.9-85.9,6.9c-28.8,0-57.5-2.3-85.8-6.9c-33.4-40.6-33.4-99.2,0-139.8
	c28.4-4.6,57.1-6.9,85.8-6.9C263.7,273.2,271.2,273.4,278.6,273.8 M48.9,324.4c1.6,8.4,2.4,17,2.4,25.6c0,8.6-0.8,17.2-2.4,25.6
	c-9.4-6.7-17.2-15.4-22.7-25.6C31.7,339.9,39.4,331.1,48.9,324.4"/>
        <path d="M243.2,219c-0.4,6.8,1.9,13.4,6.4,18.5c4.5,5.1,10.8,8.2,17.6,8.6h1.6c6.3,0,12.4-2.2,17.1-6.4l0.9-0.6c9.4,5,21,3.7,29-3.4
	l96.4-84.7c4.5,5.1,10.8,8.1,17.6,8.5h1.6c6.3,0,12.4-2.2,17.1-6.4l6.4-5.6c8.1-7.2,10.8-18.6,6.7-28.7L495,89.8
	C508.7,77.6,514.9,59,511.2,41C507.5,23,494.5,8.4,477,2.6c-17.4-5.8-36.6-1.8-50.3,10.4l-32.9,29.2c-9.4-5.2-21.1-4-29.3,3.1
	l-6.1,5.6c-5.1,4.5-8.2,10.8-8.7,17.6c-0.4,6.8,1.9,13.5,6.4,18.6l-96.4,84.6c-8.1,7.2-10.9,18.7-6.8,28.8l-1.1,1
	C246.7,205.9,243.6,212.2,243.2,219 M369.4,63.8l6.1-5.7c3.5-3.1,8.9-2.8,12,0.8l22.6,25.6c1.5,1.8,3.6,3,5.9,3.2
	c2.3,0.2,4.6-0.5,6.4-2.1c1.7-1.5,2.8-3.6,2.9-5.9c0.1-2.3-0.6-4.5-2.1-6.2l-17.1-19.2l32.2-28.4c9.1-8.7,22.1-11.7,34.1-7.9
	c11.9,3.8,20.8,13.9,23.1,26.3c2.3,12.3-2.4,24.9-12.1,32.8L445,111.1c-1.7,1.5-2.7,3.6-2.9,5.8c-0.1,2.3,0.6,4.5,2.1,6.2
	c1.5,1.7,2.3,3.9,2.1,6.1c-0.1,2.3-1.2,4.4-2.9,5.9l-6.4,5.6c-1.7,1.5-3.9,2.3-6.1,2.1c-2.3-0.1-4.4-1.2-5.9-2.9l-5.6-6.4
	l-34.1-38.8L368.7,76c-1.6-1.7-2.4-4-2.3-6.3C366.5,67.4,367.6,65.3,369.4,63.8 M263.1,214.2l6.4-5.6c1.7-1.5,2.8-3.6,2.9-5.9
	c0.1-2.3-0.6-4.5-2.1-6.2c-1.5-1.7-2.3-3.9-2.1-6.1c0.1-2.3,1.1-4.4,2.8-5.9l96-84.6l34.1,38.4l-96.3,84.7c-3.6,3.1-8.9,2.7-12-0.9
	c-3.1-3.5-8.5-3.9-12-0.8l-6.4,5.6c-1.7,1.5-4,2.3-6.2,2.1c-2.2-0.2-4.3-1.2-5.8-2.9c-1.5-1.7-2.3-4-2.1-6.2
	C260.3,217.7,261.4,215.6,263.1,214.2"/>
    </symbol>


    <symbol id="icon-scroll" viewBox="0 0 30 47">
        <path d="M15,2c7.2,0,13,5.8,13,13v17c0,7.2-5.8,13-13,13C7.8,45,2,39.2,2,32V15C2,7.8,7.8,2,15,2 M15,0L15,0C6.8,0,0,6.7,0,15v17
    c0,8.2,6.7,15,15,15h0c8.2,0,15-6.7,15-15V15C30,6.7,23.2,0,15,0L15,0z"/>
        <path  d="M15,23L15,23c-1.1,0-2-0.9-2-2v-5.9c0-1.1,0.9-2,2-2h0c1.1,0,2,0.9,2,2V21
	C17,22.1,16.1,23,15,23z"/>
    </symbol>



</svg>